<svg width="18" height="17" viewBox="0 0 18 17" fill="none" xmlns="http://www.w3.org/2000/svg">
<path d="M10.578 2.02257L14.9762 6.42163C15.2339 6.67928 15.4103 7.00689 15.4836 7.36386C15.557 7.72083 15.5239 8.09147 15.3886 8.42984L13.1867 13.935C13.0633 14.2432 12.8596 14.5128 12.5969 14.7158C12.3341 14.9188 12.0219 15.0478 11.6925 15.0894L6.96381 15.6806C6.84278 15.6946 6.7143 15.7123 6.5821 15.7327L6.16872 15.7998L5.95273 15.8389L5.2796 15.9692L4.81875 16.067L4.12514 16.2234L3.23601 16.4357L1.79107 16.8044L1.18963 16.9663C1.03786 17.0081 0.878027 17.011 0.724805 16.975C0.571583 16.9389 0.42987 16.8649 0.312659 16.7598C0.195449 16.6548 0.106491 16.522 0.0539424 16.3736C0.00139399 16.2252 -0.0130633 16.066 0.0118958 15.9106L0.0435503 15.7746L0.318201 14.7394L0.56399 13.7636L0.776262 12.8745L0.931742 12.1809L1.0295 11.7191L1.16077 11.0469L1.23525 10.6215L1.29484 10.223L1.90931 5.3072C1.95104 4.97769 2.08018 4.66535 2.28335 4.40259C2.48652 4.13983 2.7563 3.93623 3.06471 3.81292L8.56982 1.61106C8.90819 1.47575 9.27883 1.4427 9.6358 1.51602C9.99277 1.58933 10.3204 1.76485 10.578 2.02257ZM7.12395 7.24093C6.88873 7.4763 6.72088 7.7704 6.63787 8.09263C6.55486 8.41486 6.55971 8.75345 6.65192 9.07317C6.58408 9.11296 6.52152 9.16113 6.46572 9.21655L2.68764 12.9946C2.66289 13.0197 2.64577 13.0514 2.6383 13.0859L2.55544 13.4443L2.38972 14.1361L2.30965 14.4628C2.30174 14.4942 2.30212 14.5271 2.31073 14.5583C2.31934 14.5895 2.33591 14.618 2.35879 14.6409C2.38168 14.6638 2.41012 14.6803 2.44132 14.6889C2.47252 14.6975 2.50543 14.6979 2.53682 14.69L3.20436 14.5271L3.91473 14.3614C3.94897 14.3535 3.98028 14.336 4.00504 14.3111L7.78311 10.533C7.83853 10.4776 7.88671 10.4153 7.92649 10.3477C8.24196 10.4384 8.5758 10.4441 8.89418 10.3642C9.21256 10.2843 9.50416 10.1217 9.73943 9.89277C9.9747 9.66386 10.1453 9.37683 10.2339 9.06076C10.3225 8.74469 10.3259 8.41082 10.2439 8.09298C10.1619 7.77514 9.99735 7.48462 9.76689 7.25088C9.53643 7.01713 9.24828 6.84846 8.93163 6.76196C8.61498 6.67546 8.28109 6.6742 7.9638 6.75831C7.64651 6.84243 7.35709 7.00892 7.12488 7.24093H7.12395ZM11.4606 0.273184C11.6208 0.112747 11.8341 0.0162792 12.0603 0.00188053C12.2866 -0.0125181 12.5103 0.056142 12.6896 0.194978L12.7771 0.273184L16.7265 4.22257C16.8952 4.38972 16.9937 4.61506 17.0018 4.85244C17.0098 5.08983 16.9268 5.32132 16.7698 5.49953C16.6128 5.67774 16.3936 5.78919 16.157 5.81107C15.9205 5.83295 15.6846 5.76361 15.4975 5.61723L15.41 5.53903L11.4606 1.58964C11.2861 1.41505 11.188 1.17829 11.188 0.931414C11.188 0.684541 11.2861 0.447776 11.4606 0.273184Z" fill="#D7392B"/>
</svg>
