<svg width="16" height="18" viewBox="0 0 16 18" fill="none" xmlns="http://www.w3.org/2000/svg">
<path d="M3 0C3.79565 0 4.55871 0.316071 5.12132 0.87868C5.68393 1.44129 6 2.20435 6 3V15C6 15.7956 5.68393 16.5587 5.12132 17.1213C4.55871 17.6839 3.79565 18 3 18C2.20435 18 1.44129 17.6839 0.878679 17.1213C0.31607 16.5587 1.67671e-08 15.7956 0 15V3C0 2.20435 0.31607 1.44129 0.878679 0.87868C1.44129 0.316071 2.20435 0 3 0ZM13 0C13.7956 0 14.5587 0.316071 15.1213 0.87868C15.6839 1.44129 16 2.20435 16 3V15C16 15.7956 15.6839 16.5587 15.1213 17.1213C14.5587 17.6839 13.7956 18 13 18C12.2044 18 11.4413 17.6839 10.8787 17.1213C10.3161 16.5587 10 15.7956 10 15V3C10 2.20435 10.3161 1.44129 10.8787 0.87868C11.4413 0.316071 12.2044 0 13 0Z" fill="#D7392B"/>
</svg>
