<svg width="17" height="18" viewBox="0 0 17 18" fill="none" xmlns="http://www.w3.org/2000/svg">
<path d="M13.5542 12.7229C12.8675 12.7229 12.253 12.994 11.7831 13.4187L5.34036 9.66867C5.38554 9.46084 5.42169 9.25301 5.42169 9.03614C5.42169 8.81928 5.38554 8.61145 5.34036 8.40361L11.7108 4.68976C12.1988 5.14157 12.8404 5.42169 13.5542 5.42169C15.0542 5.42169 16.2651 4.21084 16.2651 2.71084C16.2651 1.21084 15.0542 0 13.5542 0C12.0542 0 10.8434 1.21084 10.8434 2.71084C10.8434 2.92771 10.8795 3.13554 10.9247 3.34337L4.55422 7.05723C4.06627 6.60542 3.4247 6.3253 2.71084 6.3253C1.21084 6.3253 0 7.53614 0 9.03614C0 10.5361 1.21084 11.747 2.71084 11.747C3.4247 11.747 4.06627 11.4669 4.55422 11.0151L10.988 14.7741C10.9428 14.9639 10.9157 15.1627 10.9157 15.3614C10.9157 16.8163 12.0994 18 13.5542 18C15.009 18 16.1928 16.8163 16.1928 15.3614C16.1928 13.9066 15.009 12.7229 13.5542 12.7229Z" fill="#D7392B"/>
</svg>
