<svg width="14" height="15" viewBox="0 0 14 15" fill="none" xmlns="http://www.w3.org/2000/svg">
<path d="M13.0446 14.4851C12.7204 14.8093 12.2808 14.9914 11.8223 14.9914C11.3639 14.9914 10.9242 14.8093 10.6 14.4851L6.78117 10.1203L2.96232 14.4837C2.80229 14.6464 2.61163 14.7757 2.40134 14.8643C2.19106 14.953 1.96531 14.9991 1.73712 15C1.50893 15.0009 1.28281 14.9567 1.07181 14.8698C0.860811 14.7829 0.669103 14.6551 0.507747 14.4937C0.34639 14.3323 0.218578 14.1406 0.131682 13.9296C0.0447858 13.7186 0.000525588 13.4925 0.00145476 13.2643C0.00238393 13.0361 0.0484838 12.8104 0.137095 12.6001C0.225707 12.3898 0.355077 12.1992 0.517742 12.0391L4.49073 7.50144L0.516301 2.96088C0.353636 2.80085 0.224266 2.61019 0.135655 2.3999C0.0470434 2.18962 0.000943503 1.96387 1.43318e-05 1.73568C-0.000914839 1.50749 0.0433454 1.28137 0.130241 1.07037C0.217138 0.85937 0.34495 0.667663 0.506306 0.506306C0.667663 0.34495 0.85937 0.217138 1.07037 0.130241C1.28137 0.0433454 1.50749 -0.000914839 1.73568 1.43318e-05C1.96387 0.000943503 2.18962 0.0470434 2.3999 0.135655C2.61019 0.224266 2.80085 0.353636 2.96088 0.516302L6.78117 4.88255L10.6 0.516302C10.7601 0.353636 10.9507 0.224266 11.161 0.135655C11.3713 0.0470434 11.597 0.000943503 11.8252 1.43318e-05C12.0534 -0.000914839 12.2795 0.0433454 12.4905 0.130241C12.7015 0.217138 12.8932 0.34495 13.0546 0.506306C13.216 0.667663 13.3438 0.85937 13.4307 1.07037C13.5176 1.28137 13.5618 1.50749 13.5609 1.73568C13.56 1.96387 13.5139 2.18962 13.4253 2.3999C13.3366 2.61019 13.2073 2.80085 13.0446 2.96088L9.07162 7.50144L13.0446 12.0391C13.2053 12.1997 13.3328 12.3903 13.4198 12.6002C13.5068 12.81 13.5516 13.035 13.5516 13.2621C13.5516 13.4893 13.5068 13.7142 13.4198 13.9241C13.3328 14.1339 13.2053 14.3246 13.0446 14.4851Z" fill="#D7392B"/>
</svg>
