<svg width="16" height="15" viewBox="0 0 16 15" fill="none" xmlns="http://www.w3.org/2000/svg">
<path d="M14.646 2.27434C14.7714 2.15333 14.8715 2.00856 14.9403 1.84847C15.0092 1.68839 15.0455 1.51619 15.0471 1.34193C15.0487 1.16767 15.0155 0.994837 14.9496 0.833516C14.8837 0.672195 14.7863 0.525616 14.6632 0.402333C14.54 0.279049 14.3935 0.18153 14.2322 0.115465C14.071 0.0493993 13.8982 0.0161117 13.7239 0.0175433C13.5497 0.0189748 13.3774 0.0550971 13.2173 0.123803C13.0571 0.192508 12.9123 0.292421 12.7911 0.417712L7.53099 5.67611L2.27259 0.417712C2.15244 0.288769 2.00755 0.185347 1.84656 0.113615C1.68557 0.0418844 1.51178 0.00331341 1.33556 0.000204246C1.15935 -0.00290492 0.984308 0.0295115 0.820889 0.0955188C0.657471 0.161526 0.509022 0.259773 0.384397 0.384397C0.259773 0.509022 0.161526 0.65747 0.0955188 0.820888C0.0295115 0.984307 -0.00290492 1.15935 0.000204246 1.33557C0.00331341 1.51178 0.0418844 1.68557 0.113615 1.84656C0.185347 2.00755 0.288769 2.15244 0.417712 2.27259L5.67261 7.53274L0.414212 12.7911C0.182388 13.0399 0.0561802 13.369 0.0621792 13.709C0.0681781 14.049 0.205915 14.3734 0.446372 14.6139C0.686829 14.8543 1.01123 14.992 1.35123 14.998C1.69124 15.004 2.0203 14.8778 2.26909 14.646L7.53099 9.38761L12.7894 14.6478C13.0382 14.8796 13.3672 15.0058 13.7072 14.9998C14.0472 14.9938 14.3716 14.8561 14.6121 14.6156C14.8526 14.3751 14.9903 14.0507 14.9963 13.7107C15.0023 13.3707 14.8761 13.0417 14.6443 12.7929L9.38936 7.53274L14.646 2.27434Z" fill="#D7392B"/>
</svg>
